<?xml version="1.0" standalone="no"?><!DOCTYPE svg PUBLIC "-//W3C//DTD SVG 1.1//EN" "http://www.w3.org/Graphics/SVG/1.1/DTD/svg11.dtd"><svg t="1558598780913" class="icon" style="" viewBox="0 0 1024 1024" version="1.1" xmlns="http://www.w3.org/2000/svg" p-id="7364" xmlns:xlink="http://www.w3.org/1999/xlink" width="200" height="200"><defs><style type="text/css"></style></defs><path d="M1012.8 369.6L696 198.4v-112c0-12.8-11.2-22.4-24-22.4H22.4C9.6 64 0 73.6 0 86.4v720c0 12.8 9.6 22.4 22.4 22.4s22.4-9.6 22.4-22.4V110.4h604.8v102.4c0 8 4.8 16 12.8 20.8l316.8 169.6v403.2c0 12.8 9.6 22.4 22.4 22.4s22.4-9.6 22.4-22.4V388.8c1.6-8-3.2-16-11.2-19.2z" fill="" p-id="7365"></path><path d="M873.6 516.8h-176V347.2c0-12.8-9.6-22.4-22.4-22.4-12.8 0-22.4 9.6-22.4 22.4v192c0 12.8 9.6 22.4 22.4 22.4h198.4c12.8 0 22.4-9.6 22.4-22.4 1.6-11.2-9.6-22.4-22.4-22.4zM742.4 651.2c-78.4 0-142.4 57.6-153.6 132.8h-148.8c-11.2-76.8-76.8-134.4-155.2-134.4-86.4 0-156.8 70.4-156.8 156.8s70.4 156.8 156.8 156.8c78.4 0 144-59.2 155.2-134.4h148.8c11.2 75.2 75.2 132.8 153.6 132.8 84.8 0 155.2-68.8 155.2-155.2s-70.4-155.2-155.2-155.2zM284.8 918.4c-62.4 0-112-49.6-112-112s49.6-112 112-112 112 49.6 112 112-51.2 112-112 112z m457.6-3.2c-60.8 0-108.8-49.6-108.8-108.8 0-60.8 49.6-108.8 108.8-108.8 60.8 0 108.8 49.6 108.8 108.8 0 60.8-49.6 108.8-108.8 108.8z" fill="" p-id="7366"></path></svg>